- 
http://www.Speed.Cd 
       
http://www.Speed.Cd      fast  and The Hottest Private Tracker on the net

(((--Registration will be open on june every weekend--)))

Please Seed back to make the speed Faster!!!

------------------nfo--------------------------
-[img]http://img691.imageshack.us/img691/7336/000018y.jpg[/img]

[color=blue][size=4][b]A.Chinese.Ghost.Story.2011.BDRip.HCSubs.XVID.AC3.HQ.Hive-CM8[/b][/size][/color]


[b]Thx Hive


CM8 Doing It Right The First Time :D

Sources

Video+Audio: Chinese Bluray
English Subs: foreign DVD

Encode: 

who hasnt seen that famous Tsui Harks Trilogy 1987-1990.
This is a chinese remake of that classic movie with new CGI Effects and fighting scenes.
looks promising
YES Its [b][u]Chinese[/u][/b] Language!
Chinese Bluray didnt have eng subs, but i found some which fit perfectly and hardcoded them within.


Video: 720x304 @bitrate 1800 2pass
Audio: Chinese DTS to AC3 5.1 @384
Sample: yes included
Subs: yes english hardcoded[/b]


[url]http://www.imdb.com/title/tt1861421/[/url]


General
Complete name                    : A.Chinese.Ghost.Story.2011.BDRip.HCSubs.XVID.AC3.HQ.Hive-CM8.avi
Format                           : AVI
Format/Info                      : Audio Video Interleave
File size                        : 1.54 GiB
Duration                         : 1h 41mn
Overall bit rate                 : 2 182 Kbps
Writing application              : Nandub v1.0rc2
Writing library                  : Nandub build 1853/release

Video
ID                               : 0
Format                           : MPEG-4 Visual
Format profile                   : Advanced Simple@L5
Format settings, BVOP            : 1
Format settings, QPel            : Yes
Format settings, GMC             : No warppoints
Format settings, Matrix          : Default (H.263)
Muxing mode                      : Packed bitstream
Codec ID                         : XVID
Codec ID/Hint                    : XviD
Duration                         : 1h 41mn
Bit rate                         : 1 797 Kbps
Width                            : 720 pixels
Height                           : 304 pixels
Display aspect ratio             : 2.35:1
Frame rate                       : 23.976 fps
Color space                      : YUV
Chroma subsampling               : 4:2:0
Bit depth                        : 8 bits
Scan type                        : Progressive
Compression mode                 : Lossy
Bits/(Pixel*Frame)               : 0.342
Stream size                      : 1.27 GiB (82%)
Writing library                  : XviD 1.2.1 (UTC 2008-12-04)

Audio
ID                               : 1
Format                           : AC-3
Format/Info                      : Audio Coding 3
Mode extension                   : CM (complete main)
Codec ID                         : 2000
Duration                         : 1h 38mn
Bit rate mode                    : Constant
Bit rate                         : 384 Kbps
Channel(s)                       : 6 channels
Channel positions                : Front: L C R, Side: L R, LFE
Sampling rate                    : 48.0 KHz
Bit depth                        : 16 bits
Compression mode                 : Lossy
Stream size                      : 272 MiB (17%)
Alignment                        : Split accross interleaves
Interleave, duration             : 43 ms (1.02 video frame)
Interleave, preload duration     : 500 ms


Louis Koo	... 	Yan Chixia
Yifei Liu	... 	Nie Xiaoqian
Shao-qun Yu	... 	Ning Caichen
Kara Hui	... 	Tree Demon
Elvis Tsui	... 	Village Chief


Legendary Hong Kong producer/director Tsui Hark and filmmaker Ching Siutung combine forces in this high-flying supernatural romance classic. Ning Caichen (Leslie Cheung) is a lowly tax collector who takes refuge for the night at the spooky Lam Ro temple. There he encounters and promptly falls in love with a beautiful ghost named Nie Xiaoqian (Joey Wang). Unfortunately Xiaoqian is damned to serve the evil hermaphroditic tree spirit Lao Lao, who (thanks to an extraordinarily long tongue) feasts on the souls of amorous young males.Soon afterwards, Caichen meets Master Yan (Ma Wu), a Taoist hermit, martial arts master, and a sworn enemy of Lao Lao, who tells him of Xiaoqian's true, otherworldly nature. Nonetheless, true love proves to be strong. 
  

[img]http://img171.imageshack.us/img171/9133/12502139.png[/img]
[img]http://img5.imageshack.us/img5/7078/chch.png[/img]
[img]http://img593.imageshack.us/img593/4129/chchch.png[/img]
[img]http://img43.imageshack.us/img43/6674/chchchch.png[/img]
[img]http://img809.imageshack.us/img809/6138/chchchchch.png[/img]
[img]http://img638.imageshack.us/img638/4119/chchchchchch.png[/img]
[img]http://img694.imageshack.us/img694/1510/chchchchchchch.png[/img]
[img]http://img811.imageshack.us/img811/749/chchchchchchchch.png[/img]
[img]http://img825.imageshack.us/img825/2730/chchchchchchchchch.png[/img]
[img]http://img32.imageshack.us/img32/9394/chchchchchchchchchch.png[/img]
[img]http://img52.imageshack.us/img52/5334/chchchchchchchchchchch.png[/img]
[img]http://img508.imageshack.us/img508/227/chchchchchchchchchchchc.png[/img]
[img]http://img808.imageshack.us/img808/227/chchchchchchchchchchchc.png[/img]





Greetz

ViSiON,SiC,SANTi,3LT0N,MAGNET,THC,T0XiC,LKRG,FANTASIA-PLAY,FANTASIA-M,BHRG,IMAGiNE,WBZ,FLAWL3SS,NOVA,
D2U,Vik,Rapeseed,SAFC,goldadvance,MEMORY100,scumbag,Hero5,KaN1vE,Unevano,Pinnz,Wayne,cedrict wink,
Mr Hive and all P2P groups
Great Work Guys :D

FYS

CM8@hushmail.com